<svg xmlns="http://www.w3.org/2000/svg" class="flat-character" data-character="corridor" data-mood="offer" viewBox="0 0 320 360" role="img" aria-label="corridor"><path d="m106 151-67 29-26 139 254 12 39-35-31-116-68-31Z" fill="#161936"/><path d="m117 150 42 30 42-32 3 108-45 68-30-119Z" fill="#fff8e8"/><path d="m102 157-43 24 22 43-10 18 88 82-33-133Z" fill="#574798"/><path d="m207 152 51 29-26 41 13 17-86 85 37-130Z" fill="#574798"/><path d="m135 180 23 9 26-12 2 24-25-4-26 10Z" fill="#161936"/><g class="portrait-head"><path d="m111 51 62-19 29 29 3 59-38 47-33-6-27-45Z" fill="#efa36d"/><path d="m177 46 26 24 2 50-38 47 16-35 5-33Z" fill="#c66642"/><path d="M109 103 90 83l7-23-8-12 24-23 30 2 28-14 31 25 17 11-14 45-11-31-22-10-36 18-18 28Z" fill="#161936"/><path d="m119 56 23-17 39-9-20 23Z" fill="#574798"/><path d="m119 110 25-10 6 6-31 10Zm47-7 27-10 6 6-27 10Z" fill="#161936"/><path d="m158 113-9 20 14 2Z" fill="#c66642"/><path d="m140 143 18-9 20 8-20-2Z" fill="#161936"/><path d="m150 151 20-2-8 7Z" fill="#161936"/></g><path d="m34 266 14-26 45 20 13 29-23 31-52-6Z" fill="#fff8e8"/><path d="m50 280 53-9 35-15 17 4-13 15-43 28-27 1Z" fill="#efa36d"/><path d="m209 225 70-9 12 47-62 17Z" fill="#fff8e8"/><path d="m263 257 13-23 14 3 2 20-12 26-34 15-6-13 24-13-29 6-10-8 22-17Z" fill="#efa36d"/><ellipse cx="107" cy="266" rx="87" ry="9" fill="#edbd38"/><path d="M41 259q4-74 66-74 58 0 64 74Z" fill="#edbd38"/><path d="M107 185q58 0 64 74h-36q-1-52-28-74Z" fill="#ff4928"/><path d="M46 250q10-48 39-55-17 23-19 55Z" fill="#fff8e8"/><path d="M98 175h18v12H98Z" fill="#edbd38"/><path d="m97 175 11-10 10 10-10 6Z" fill="#fff8e8"/></svg>